<svg width="191" height="75" viewBox="0 0 191 75" fill="none" xmlns="http://www.w3.org/2000/svg">
<g clip-path="url(#clip0_2030_14)">
<path d="M99.6588 2.75294C126.022 5.98991 149.361 12.8631 165.778 21.3252C173.99 25.5582 180.42 30.1633 184.637 34.8671C188.856 39.5731 190.777 44.2782 190.226 48.77C189.674 53.2618 186.672 57.3624 181.44 60.9079C176.21 64.4518 168.857 67.3646 159.865 69.4851C141.888 73.7242 117.58 74.747 91.2165 71.51C64.8535 68.273 41.5145 61.3999 25.0974 52.9377C16.8854 48.7048 10.455 44.0996 6.23806 39.3958C2.01924 34.6899 0.0980333 29.9848 0.649523 25.493C1.20105 21.0011 4.20345 16.9006 9.43546 13.3551C14.665 9.81114 22.0185 6.89842 31.0107 4.77791C48.9873 0.538763 73.2958 -0.484038 99.6588 2.75294Z" stroke="black" stroke-width="2"/>
</g>
<defs>
<clipPath id="clip0_2030_14">
<rect width="191" height="75" fill="white"/>
</clipPath>
</defs>
</svg>
