<svg width="170" height="39" viewBox="0 0 170 39" fill="none" xmlns="http://www.w3.org/2000/svg">
<path d="M10.7674 38.341C8.74388 38.341 6.91204 38.0002 5.27189 37.3186C3.65305 36.637 2.37502 35.6465 1.43779 34.3472C0.479265 33.0478 2.28894e-06 31.4822 2.28894e-06 29.6504C2.28894e-06 27.9463 0.330161 26.5512 0.990479 25.4648C1.6508 24.3572 2.37502 23.5265 3.16314 22.9727C3.61045 22.6532 4.02581 22.4295 4.40922 22.3017C4.79263 22.1526 5.04824 22.078 5.17604 22.078C5.30384 22.078 5.36774 22.1313 5.36774 22.2378C5.36774 22.3443 5.31449 22.4295 5.20799 22.4934C4.10036 23.1537 3.24834 24.0909 2.65192 25.3051C2.07681 26.5192 1.78925 27.8505 1.78925 29.2989C1.78925 30.9604 2.17266 32.3982 2.93948 33.6123C3.7063 34.8477 4.77133 35.7956 6.13457 36.4559C7.4978 37.1162 9.07404 37.4464 10.8633 37.4464C13.888 37.4464 16.7742 36.2536 19.522 33.8679C22.2697 31.4822 24.9217 28.1593 27.4777 23.8992C28.4363 22.2591 29.3415 20.5657 30.1936 18.8191C31.0456 17.0724 31.855 15.3471 32.6218 13.643C33.3886 11.9816 34.1129 10.4905 34.7945 9.16989C35.4974 7.82796 36.1045 6.69903 36.6157 5.7831C37.1482 4.86718 37.5316 4.22816 37.7659 3.86605C32.3769 4.59027 28.202 5.7405 25.2412 7.31674C22.3017 8.89299 20.832 10.9165 20.832 13.3874C20.832 14.6654 21.1621 15.624 21.8224 16.263C22.4828 16.8807 23.2389 17.1896 24.0909 17.1896C24.9217 17.1896 25.7524 16.9233 26.5831 16.3908C27.4351 15.8583 28.1381 15.1234 28.6919 14.1862C29.267 13.2277 29.5545 12.12 29.5545 10.8633C29.5545 10.2456 29.3628 9.74501 28.9794 9.3616C28.9794 9.14859 29.0859 9.04209 29.2989 9.04209C29.5545 9.04209 29.7782 9.2338 29.9699 9.61721C30.1829 10.0006 30.2894 10.4799 30.2894 11.055C30.2894 12.4821 29.9486 13.7176 29.267 14.7613C28.6067 15.7837 27.7546 16.5718 26.7109 17.1257C25.6885 17.6795 24.6341 17.9564 23.5478 17.9564C22.7171 17.9564 21.9289 17.7753 21.1834 17.4132C20.4379 17.0511 19.8202 16.4973 19.3303 15.7518C18.8617 15.0062 18.6273 14.0797 18.6273 12.972C18.6273 11.5236 19.1066 10.2669 20.0651 9.20185C21.045 8.11552 22.4082 7.18894 24.1548 6.42212C25.9228 5.6553 27.9996 4.99498 30.3853 4.44117C32.7922 3.88735 35.4335 3.40809 38.3091 3.00338C38.9055 2.17266 39.4487 1.52299 39.9386 1.05438C40.4498 0.585767 41.0036 0.35146 41.6 0.35146C41.9408 0.35146 42.2071 0.436663 42.3988 0.607068C42.6118 0.777472 42.7183 1.03308 42.7183 1.37389C42.7183 1.8638 42.5159 2.26851 42.1112 2.58802C41.7065 2.88623 41.1953 3.13118 40.5776 3.32289C39.9599 3.49329 39.3421 3.63175 38.7244 3.73825C37.9363 5.10149 37.244 6.50732 36.6476 7.95576C36.0725 9.3829 35.5293 10.8526 35.0181 12.365C34.5282 13.856 33.9957 15.3897 33.4206 16.9659C32.8668 18.5208 32.2065 20.1184 31.4396 21.7585C29.8421 25.1453 27.9996 28.0741 25.9121 30.545C23.8247 33.0372 21.5136 34.9542 18.9788 36.2962C16.444 37.6594 13.7069 38.341 10.7674 38.341ZM39.2995 2.93948C40.1729 2.79038 40.7586 2.60932 41.0568 2.39631C41.3551 2.16201 41.5042 1.949 41.5042 1.7573C41.5042 1.50169 41.3764 1.37389 41.1207 1.37389C40.8864 1.37389 40.5989 1.55494 40.2581 1.91705C39.9386 2.25786 39.6191 2.59867 39.2995 2.93948ZM42.2183 26.2316C41.7284 26.2316 41.2917 26.0932 40.9083 25.8163C40.5462 25.5394 40.3652 24.9749 40.3652 24.1229C40.3652 23.7608 40.3865 23.42 40.4291 23.1005C40.493 22.781 40.5675 22.4401 40.6527 22.078C40.461 22.3975 40.1948 22.7916 39.8539 23.2602C39.5131 23.7288 39.1297 24.1868 38.7037 24.6341C38.299 25.0814 37.873 25.4542 37.4257 25.7524C36.9997 26.0506 36.595 26.1997 36.2115 26.1997C35.6577 26.1997 35.2104 25.9547 34.8696 25.4648C34.5288 24.9536 34.3584 24.2933 34.3584 23.4839C34.3584 22.6106 34.5608 21.6733 34.9655 20.6722C35.3702 19.6711 35.924 18.7125 36.6269 17.7966C37.3298 16.8807 38.1392 16.1352 39.0552 15.5601C39.9711 14.9849 40.9296 14.6974 41.9307 14.6974C42.4207 14.6974 42.8893 14.7826 43.3366 14.953C43.7839 15.1021 44.178 15.3577 44.5188 15.7198C44.6679 15.8689 44.7424 16.0393 44.7424 16.231C44.7424 16.3588 44.6892 16.4653 44.5827 16.5505C44.4762 16.6357 44.3377 16.657 44.1673 16.6144C43.933 15.8689 43.4324 15.4962 42.6656 15.4962C42.3035 15.4962 41.8881 15.6133 41.4195 15.8476C40.8444 16.1458 40.2267 16.6251 39.5664 17.2854C38.9274 17.9244 38.3203 18.6593 37.7452 19.49C37.1914 20.2994 36.7334 21.1195 36.3713 21.9502C36.0092 22.781 35.8281 23.5371 35.8281 24.2187C35.8281 24.9217 36.0944 25.2731 36.6269 25.2731C37.0955 25.2731 37.5748 25.0495 38.0647 24.6022C38.5759 24.1548 39.0552 23.601 39.5025 22.9407C39.9711 22.2591 40.3971 21.5881 40.7805 20.9278C41.1639 20.2675 41.4621 19.735 41.6751 19.3303C41.9946 18.7551 42.2929 18.2759 42.5698 17.8925C42.8467 17.5091 43.2407 17.3174 43.7519 17.3174C43.9863 17.3174 44.2206 17.3493 44.4549 17.4132C44.6892 17.4771 44.9341 17.4878 45.1897 17.4452C44.5507 18.0842 43.9863 18.8404 43.4963 19.7137C43.0277 20.587 42.6656 21.4497 42.41 22.3017C42.1544 23.1324 42.0266 23.8353 42.0266 24.4104C42.0266 25.0495 42.2396 25.369 42.6656 25.369C43.0064 25.369 43.3685 25.1773 43.7519 24.7939C44.1567 24.4104 44.5401 23.9312 44.9022 23.3561C45.2856 22.7597 45.637 22.1632 45.9566 21.5668C46.2761 20.9491 46.5317 20.4166 46.7234 19.9693C46.8299 19.9693 46.9151 19.9799 46.979 20.0012C47.0642 20.0225 47.1068 20.1077 47.1068 20.2568C47.0855 20.342 47.0429 20.4379 46.979 20.5444C46.9364 20.6296 46.8618 20.7894 46.7553 21.0237C46.5849 21.3645 46.3506 21.8224 46.0524 22.3975C45.7542 22.9727 45.4027 23.5584 44.998 24.1548C44.5933 24.73 44.1567 25.2199 43.688 25.6246C43.2194 26.0293 42.7295 26.2316 42.2183 26.2316ZM47.4071 26.2636C46.5338 26.2636 45.8202 25.9973 45.2664 25.4648C44.7339 24.911 44.4676 24.3359 44.4676 23.7395C44.4676 23.2496 44.5954 22.8023 44.851 22.3975C45.0853 21.9715 45.4048 21.7585 45.8095 21.7585L45.8415 21.6946C46.3101 20.8426 46.7574 19.9799 47.1834 19.1066C47.6307 18.212 48.1206 17.2641 48.6532 16.263C49.1005 15.4323 49.5797 14.7506 50.0909 14.2181C50.6235 13.6856 51.2412 13.4194 51.9441 13.4194C52.1145 13.4194 52.3488 13.462 52.647 13.5472C52.9452 13.6111 53.0943 13.7602 53.0943 13.9945C53.0943 14.1649 52.9985 14.2501 52.8068 14.2501C52.6577 14.2501 52.4873 14.2075 52.2956 14.1223C52.1251 14.0371 51.9867 13.9945 51.8802 13.9945C51.4755 13.9945 51.1347 14.2288 50.8578 14.6974C50.5809 15.166 50.4424 15.6666 50.4424 16.1991C50.4424 16.7742 50.5383 17.2961 50.73 17.7647C50.9217 18.212 51.1453 18.6486 51.4009 19.0747C51.6565 19.5007 51.8802 19.9373 52.0719 20.3846C52.2636 20.8107 52.3595 21.2793 52.3595 21.7905C52.3595 22.8129 52.1571 23.6436 51.7524 24.2826C51.369 24.9004 50.8578 25.369 50.2187 25.6885H50.2507C51.3796 25.6885 52.3062 25.1666 53.0304 24.1229C53.7759 23.0579 54.5108 21.6733 55.235 19.9693C55.4906 19.9693 55.6184 20.0651 55.6184 20.2568C55.2137 21.2154 54.7664 22.1526 54.2765 23.0685C53.7866 23.9844 53.2115 24.7406 52.5512 25.337C51.8908 25.9334 51.0814 26.2316 50.1229 26.2316C49.7182 26.2316 49.3454 26.189 49.0046 26.1038C48.5147 26.2103 47.9822 26.2636 47.4071 26.2636ZM46.9278 22.8768C46.9278 23.388 47.045 23.8779 47.2793 24.3465C47.5136 24.8152 47.9396 25.1666 48.5573 25.4009C49.1111 25.0814 49.5371 24.5915 49.8353 23.9312C50.1548 23.2496 50.3146 22.5467 50.3146 21.8224C50.3146 21.226 50.2507 20.6189 50.1229 20.0012C49.9951 19.3835 49.8566 18.7764 49.7075 18.18C49.5797 17.5836 49.5158 17.0511 49.5158 16.5825C49.5158 16.4334 49.5158 16.3056 49.5158 16.1991C49.5371 16.0713 49.5584 15.9541 49.5797 15.8476C49.1963 16.4227 48.8023 17.0937 48.3975 17.8605C48.0141 18.6273 47.6414 19.3622 47.2793 20.0651C46.9172 20.7681 46.587 21.3432 46.2888 21.7905C46.7148 21.8544 46.9278 22.2165 46.9278 22.8768ZM45.8734 24.4744C45.8734 24.8152 45.9906 25.1134 46.2249 25.369C46.4592 25.6246 46.8107 25.7524 47.2793 25.7524C47.4923 25.7524 47.6946 25.7311 47.8863 25.6885C47.439 25.4116 47.0769 25.0601 46.8 24.6341C46.5444 24.2081 46.4166 23.7182 46.4166 23.1644C46.2249 23.3774 46.0864 23.601 46.0012 23.8353C45.916 24.0483 45.8734 24.2613 45.8734 24.4744ZM62.571 26.1358C61.8468 26.1358 61.3143 25.8908 60.9735 25.4009C60.6326 24.911 60.4622 24.3359 60.4622 23.6756C60.4622 23.4839 60.4729 23.2922 60.4942 23.1005C60.5155 22.8875 60.5581 22.6745 60.622 22.4614C60.3238 22.9301 59.9723 23.4519 59.5676 24.027C59.1842 24.5809 58.7369 25.0708 58.2257 25.4968C57.7358 25.9015 57.1819 26.1038 56.5642 26.1038C56.2873 26.1038 55.9678 26.0399 55.6057 25.9121C55.2649 25.7843 54.956 25.5394 54.6791 25.1773C54.4235 24.8152 54.2957 24.2826 54.2957 23.5797C54.2957 22.6638 54.4981 21.6946 54.9028 20.6722C55.3075 19.6498 55.8613 18.6912 56.5642 17.7966C57.2672 16.8807 58.0659 16.1458 58.9605 15.592C59.8552 15.0169 60.7817 14.7293 61.7403 14.7293C62.5071 14.7293 63.2313 14.9317 63.9129 15.3364C64.2324 14.74 64.5732 14.0797 64.9354 13.3555C65.2975 12.6099 65.6596 11.8751 66.0217 11.1508C66.3838 10.4266 66.7033 9.76631 66.9802 9.16989C67.2571 8.55218 67.4701 8.08357 67.6192 7.76406C67.9387 7.01854 68.2369 6.54993 68.5139 6.35822C68.8121 6.14521 69.1635 6.03871 69.5682 6.03871C69.8025 6.03871 70.0581 6.07066 70.335 6.13456C70.6333 6.17717 70.9208 6.18782 71.1977 6.16652C71.0912 6.27302 70.8463 6.62448 70.4629 7.22089C70.0794 7.81731 69.6108 8.59478 69.057 9.5533C68.5032 10.4905 67.9068 11.5236 67.2678 12.6525C66.6501 13.7815 66.0323 14.9423 65.4146 16.1352C64.8182 17.3067 64.2644 18.4356 63.7532 19.522C63.242 20.6083 62.8373 21.5668 62.539 22.3975C62.2408 23.2283 62.0917 23.8566 62.0917 24.2826C62.0917 24.5596 62.1556 24.8045 62.2834 25.0175C62.4112 25.2092 62.6242 25.3051 62.9225 25.3051C63.3272 25.3051 63.7425 25.1027 64.1685 24.698C64.5945 24.2933 64.9993 23.7927 65.3827 23.1963C65.7874 22.5786 66.1388 21.9822 66.437 21.4071C66.7566 20.8107 66.9909 20.3314 67.14 19.9693C67.3956 19.9693 67.5234 20.0651 67.5234 20.2568C67.3317 20.7042 67.0761 21.258 66.7566 21.9183C66.437 22.5786 66.0643 23.2283 65.6383 23.8673C65.2123 24.5063 64.733 25.0495 64.2005 25.4968C63.6893 25.9228 63.1461 26.1358 62.571 26.1358ZM56.7879 25.1773C57.0861 25.1773 57.4589 25.0175 57.9062 24.698C58.3535 24.3572 58.8327 23.8247 59.344 23.1005C59.9404 22.2484 60.622 21.1834 61.3888 19.9054C62.1556 18.6273 62.9118 17.2748 63.6573 15.8476C63.5082 15.7198 63.3485 15.624 63.1781 15.5601C63.0077 15.4962 62.7733 15.4642 62.4751 15.4642C61.9852 15.4642 61.4421 15.6772 60.8456 16.1032C60.2705 16.5079 59.6848 17.0405 59.0884 17.7008C58.5132 18.3611 57.9807 19.0747 57.4908 19.8415C57.0222 20.6083 56.6388 21.3538 56.3406 22.078C56.0637 22.781 55.9252 23.388 55.9252 23.8992C55.9252 24.7513 56.2128 25.1773 56.7879 25.1773ZM69.4427 26.2636C68.6546 26.2636 67.941 26.008 67.302 25.4968C66.6842 24.9856 66.3754 24.2081 66.3754 23.1644C66.3754 22.291 66.5671 21.3645 66.9505 20.3846C67.3552 19.4048 67.8771 18.4889 68.5161 17.6369C69.1764 16.7635 69.9006 16.0606 70.6888 15.5281C71.4982 14.9743 72.3076 14.6974 73.117 14.6974C73.5217 14.6974 73.9158 14.8145 74.2992 15.0489C74.6826 15.2832 74.8743 15.6879 74.8743 16.263C74.8743 16.7955 74.672 17.3813 74.2672 18.0203C73.8625 18.6593 73.2874 19.2557 72.5419 19.8095C72.2224 20.0438 71.8177 20.2675 71.3278 20.4805C70.8379 20.6935 70.3479 20.8746 69.858 21.0237C69.3681 21.1515 68.9634 21.2154 68.6439 21.2154C68.5374 21.471 68.4309 21.8118 68.3244 22.2378C68.2392 22.6638 68.1966 23.1005 68.1966 23.5478C68.1966 24.0803 68.3031 24.5596 68.5161 24.9856C68.7291 25.4116 69.1232 25.6246 69.6983 25.6246C70.4012 25.6246 71.0509 25.4222 71.6473 25.0175C72.265 24.6128 72.8082 24.1016 73.2768 23.4839C73.7667 22.8662 74.182 22.2378 74.5229 21.5988C74.8637 20.9598 75.1299 20.4166 75.3216 19.9693C75.5772 19.9693 75.705 20.0651 75.705 20.2568C75.4281 20.8533 75.1086 21.5029 74.7465 22.2058C74.4057 22.9088 73.9903 23.5691 73.5004 24.1868C73.0318 24.7832 72.4567 25.2838 71.7751 25.6885C71.1148 26.0719 70.3373 26.2636 69.4427 26.2636ZM68.8676 20.6402C69.1658 20.6402 69.6663 20.5337 70.3692 20.3207C71.0722 20.0864 71.7112 19.7243 72.2863 19.2344C72.8401 18.7445 73.2661 18.212 73.5643 17.6369C73.8625 17.0405 74.0116 16.5399 74.0116 16.1352C74.0116 15.6666 73.8412 15.4323 73.5004 15.4323C73.2448 15.4323 72.8934 15.6027 72.4461 15.9435C71.9987 16.2843 71.4449 16.8594 70.7846 17.6688C70.3799 18.18 69.9965 18.7338 69.6344 19.3303C69.2723 19.9267 69.0167 20.3633 68.8676 20.6402ZM77.6176 26.2636C76.8295 26.2636 76.1159 26.008 75.4769 25.4968C74.8592 24.9856 74.5503 24.2081 74.5503 23.1644C74.5503 22.291 74.742 21.3645 75.1254 20.3846C75.5301 19.4048 76.052 18.4889 76.691 17.6369C77.3513 16.7635 78.0756 16.0606 78.8637 15.5281C79.6731 14.9743 80.4825 14.6974 81.2919 14.6974C81.6967 14.6974 82.0907 14.8145 82.4741 15.0489C82.8575 15.2832 83.0492 15.6879 83.0492 16.263C83.0492 16.7955 82.8469 17.3813 82.4422 18.0203C82.0375 18.6593 81.4624 19.2557 80.7168 19.8095C80.3973 20.0438 79.9926 20.2675 79.5027 20.4805C79.0128 20.6935 78.5229 20.8746 78.033 21.0237C77.543 21.1515 77.1383 21.2154 76.8188 21.2154C76.7123 21.471 76.6058 21.8118 76.4993 22.2378C76.4141 22.6638 76.3715 23.1005 76.3715 23.5478C76.3715 24.0803 76.478 24.5596 76.691 24.9856C76.904 25.4116 77.2981 25.6246 77.8732 25.6246C78.5761 25.6246 79.2258 25.4222 79.8222 25.0175C80.4399 24.6128 80.9831 24.1016 81.4517 23.4839C81.9416 22.8662 82.357 22.2378 82.6978 21.5988C83.0386 20.9598 83.3049 20.4166 83.4966 19.9693C83.7522 19.9693 83.88 20.0651 83.88 20.2568C83.6031 20.8533 83.2835 21.5029 82.9214 22.2058C82.5806 22.9088 82.1653 23.5691 81.6754 24.1868C81.2067 24.7832 80.6316 25.2838 79.95 25.6885C79.2897 26.0719 78.5122 26.2636 77.6176 26.2636ZM77.0425 20.6402C77.3407 20.6402 77.8413 20.5337 78.5442 20.3207C79.2471 20.0864 79.8861 19.7243 80.4612 19.2344C81.015 18.7445 81.4411 18.212 81.7393 17.6369C82.0375 17.0405 82.1866 16.5399 82.1866 16.1352C82.1866 15.6666 82.0162 15.4323 81.6754 15.4323C81.4197 15.4323 81.0683 15.6027 80.621 15.9435C80.1737 16.2843 79.6199 16.8594 78.9595 17.6688C78.5548 18.18 78.1714 18.7338 77.8093 19.3303C77.4472 19.9267 77.1916 20.3633 77.0425 20.6402ZM78.4758 34.8584C78.2202 34.8584 77.9646 34.8158 77.709 34.7306C77.432 34.6667 77.1551 34.656 76.8782 34.6986C77.006 34.5708 77.251 34.1981 77.6131 33.5803C77.9752 32.9839 78.4012 32.2278 78.8911 31.3118C79.381 30.4172 79.8923 29.4374 80.4248 28.3724C80.936 27.3286 81.4366 26.2955 81.9265 25.2731C82.4164 24.2294 82.8317 23.2709 83.1725 22.3975C83.5347 21.5029 83.769 20.7894 83.8755 20.2568C83.769 20.2568 83.6731 20.2355 83.5879 20.1929C83.5027 20.1503 83.4708 20.0758 83.4921 19.9693C83.4921 19.9693 83.556 19.7776 83.6838 19.3942C83.8116 19.0108 83.9394 18.5528 84.0672 18.0203C84.195 17.4665 84.2589 16.9659 84.2589 16.5186C84.2589 16.2204 84.2269 15.9648 84.163 15.7518C84.0991 15.5388 83.982 15.4216 83.8116 15.4003L85.4091 15.1447C85.5369 15.1234 85.6541 15.1128 85.7606 15.1128C85.8671 15.0915 85.9629 15.0808 86.0481 15.0808C86.2398 15.0808 86.3676 15.1554 86.4315 15.3045C86.5167 15.4323 86.5593 15.7092 86.5593 16.1352C86.5593 16.6677 86.4635 17.3493 86.2718 18.18C86.1014 18.9895 85.899 19.703 85.6647 20.3207C85.899 19.9373 86.1972 19.4474 86.5593 18.851C86.9427 18.2546 87.3794 17.6475 87.8693 17.0298C88.3592 16.4121 88.8704 15.9009 89.403 15.4962C89.9355 15.0702 90.4573 14.8571 90.9686 14.8571C91.0751 14.8571 91.2135 14.8784 91.3839 14.921C91.9803 15.0702 92.3957 15.3684 92.63 15.8157C92.8856 16.2417 93.0134 16.7529 93.0134 17.3493C93.0134 17.9883 92.8856 18.6912 92.63 19.4581C92.3957 20.2249 92.0762 20.9811 91.6715 21.7266C91.2668 22.4508 90.8195 23.1111 90.3295 23.7075C89.7331 24.4531 89.0196 25.0495 88.1888 25.4968C87.3581 25.9441 86.5061 26.1677 85.6328 26.1677C84.8446 26.1677 84.1098 25.9654 83.4282 25.5607L80.3928 33.1969C80.0946 33.836 79.8071 34.2726 79.5302 34.5069C79.2532 34.7412 78.9018 34.8584 78.4758 34.8584ZM84.6103 25.4968C85.2068 25.4968 85.8777 25.2199 86.6232 24.6661C87.3688 24.1122 88.0823 23.4093 88.7639 22.5573C89.4669 21.684 90.0526 20.8107 90.5212 19.9373C90.8408 19.3409 91.0751 18.7978 91.2242 18.3078C91.3733 17.7966 91.4478 17.36 91.4478 16.9979C91.4478 16.1671 91.1496 15.7518 90.5532 15.7518C90.2763 15.7518 89.9142 15.9009 89.4669 16.1991C89.0409 16.4973 88.5403 17.0405 87.9652 17.8286C87.3475 18.6806 86.6658 19.7563 85.9203 21.0556C85.1961 22.3336 84.4506 23.6862 83.6838 25.1134C83.9394 25.369 84.2482 25.4968 84.6103 25.4968ZM110.996 29.0753C108.909 29.0753 106.992 28.7664 105.245 28.1487C103.52 27.531 102.125 26.6257 101.06 25.4329C99.9948 24.2187 99.409 22.7277 99.3025 20.9598C99.2599 20.2355 99.377 19.4368 99.6539 18.5634C99.9309 17.6901 100.314 16.8274 100.804 15.9754C101.315 15.1021 101.912 14.3246 102.593 13.643C103.296 12.9401 104.042 12.4076 104.83 12.0455C104.894 12.0029 104.99 11.9709 105.118 11.9496C105.267 11.9283 105.373 11.9177 105.437 11.9177C105.565 11.9177 105.629 11.9496 105.629 12.0135C105.629 12.12 105.469 12.2904 105.149 12.5247C104.255 13.2277 103.52 14.0371 102.945 14.953C102.348 15.8689 101.901 16.8487 101.603 17.8925C101.305 18.9362 101.156 19.9906 101.156 21.0556C101.156 22.3123 101.422 23.3987 101.954 24.3146C102.508 25.2092 103.243 25.9441 104.159 26.5192C105.075 27.1156 106.119 27.5523 107.29 27.8292C108.462 28.1061 109.687 28.2446 110.965 28.2446C112.392 28.2446 113.798 28.0848 115.182 27.7653C116.588 27.4458 117.866 26.9878 119.016 26.3914C120.784 25.4542 122.179 24.2933 123.202 22.9088C124.245 21.5242 124.767 20.1503 124.767 18.7871C124.767 18.0629 124.608 17.3706 124.288 16.7103C123.99 16.05 123.5 15.4536 122.818 14.921C122.307 14.5163 121.679 14.1329 120.933 13.7708C120.209 13.4087 119.432 13.0572 118.601 12.7164C117.791 12.3756 116.993 12.0348 116.204 11.694C115.416 11.3319 114.724 10.9485 114.128 10.5438C113.276 9.96867 112.647 9.35095 112.243 8.69063C111.859 8.03031 111.667 7.37 111.667 6.70968C111.667 5.92156 111.891 5.15474 112.338 4.40922C112.807 3.6637 113.435 2.99273 114.224 2.39631C115.033 1.7786 115.938 1.29934 116.939 0.958526C117.813 0.660318 118.761 0.426012 119.783 0.255607C120.827 0.0852034 121.849 1.64123e-06 122.85 1.64123e-06C123.681 1.64123e-06 124.469 0.0639031 125.215 0.191706C125.981 0.298209 126.652 0.500564 127.228 0.798772C127.952 1.13958 128.506 1.59754 128.889 2.17266C129.272 2.72647 129.464 3.31224 129.464 3.92995C129.464 4.78198 129.081 5.5275 128.314 6.16652C128.037 6.37952 127.728 6.58188 127.387 6.77358C127.046 6.94399 126.642 7.09309 126.173 7.22089C126.088 7.24219 125.992 7.25284 125.886 7.25284C125.63 7.25284 125.502 7.17829 125.502 7.02919C125.502 6.94398 125.566 6.85878 125.694 6.77358C125.843 6.66708 126.056 6.60318 126.333 6.58188C126.972 6.49667 127.451 6.25172 127.771 5.84701C128.112 5.4423 128.282 4.97368 128.282 4.44117C128.282 3.88735 128.09 3.34419 127.707 2.81168C127.345 2.25786 126.78 1.7999 126.013 1.43779C125.247 1.05438 124.267 0.862675 123.074 0.862675C122.392 0.862675 121.636 0.937226 120.805 1.08633C119.996 1.23543 119.112 1.48039 118.153 1.8212C116.982 2.22591 116.002 2.82233 115.214 3.61045C114.447 4.39857 114.064 5.23994 114.064 6.13456C114.064 6.68838 114.245 7.25284 114.607 7.82796C114.99 8.38177 115.597 8.91429 116.428 9.4255C117.131 9.85151 117.93 10.2775 118.824 10.7035C119.719 11.1082 120.624 11.5236 121.54 11.9496C122.456 12.3543 123.287 12.791 124.032 13.2596C125.204 13.9838 126.045 14.7613 126.557 15.592C127.068 16.4227 127.323 17.2748 127.323 18.1481C127.323 19.1705 127.015 20.2036 126.397 21.2473C125.8 22.2697 125.012 23.2389 124.032 24.1548C123.053 25.0495 121.977 25.8482 120.805 26.5512C119.442 27.3606 117.898 27.9783 116.173 28.4043C114.468 28.8516 112.743 29.0753 110.996 29.0753ZM130.441 26.1358C129.653 26.1358 129.099 25.9121 128.779 25.4648C128.46 24.9962 128.3 24.4637 128.3 23.8673C128.3 23.5478 128.332 23.2283 128.396 22.9088C128.481 22.568 128.577 22.2591 128.684 21.9822L130.824 16.5186C130.888 16.3482 130.92 16.1991 130.92 16.0713C130.92 15.8583 130.867 15.6772 130.76 15.5281C130.654 15.3577 130.579 15.2406 130.537 15.1767L132.294 15.1128C132.613 15.0915 132.837 15.1341 132.965 15.2406C133.114 15.3258 133.189 15.4323 133.189 15.5601C133.189 15.6879 133.114 15.9222 132.965 16.263C132.752 16.7742 132.464 17.4132 132.102 18.18C131.74 18.9469 131.378 19.735 131.016 20.5444C130.675 21.3538 130.377 22.11 130.121 22.8129C129.887 23.5158 129.77 24.059 129.77 24.4424C129.77 24.7193 129.834 24.9536 129.962 25.1453C130.111 25.337 130.356 25.4329 130.696 25.4329C131.144 25.4329 131.58 25.2625 132.006 24.9217C132.454 24.5596 132.869 24.1016 133.253 23.5478C133.636 22.994 133.987 22.3975 134.307 21.7585C134.648 21.1195 134.935 20.5231 135.17 19.9693C135.425 19.9693 135.553 20.0651 135.553 20.2568C135.34 20.7894 135.063 21.3964 134.722 22.078C134.381 22.7597 133.987 23.4093 133.54 24.027C133.114 24.6235 132.635 25.124 132.102 25.5287C131.591 25.9334 131.037 26.1358 130.441 26.1358ZM133.284 13.1318C133.008 13.1318 132.763 13.0253 132.55 12.8123C132.358 12.5993 132.262 12.3437 132.262 12.0455C132.262 11.6834 132.411 11.3639 132.709 11.0869C133.008 10.7887 133.338 10.6396 133.7 10.6396C133.998 10.6396 134.254 10.7355 134.467 10.9272C134.68 11.1189 134.786 11.3639 134.786 11.6621C134.786 12.0455 134.637 12.3863 134.339 12.6845C134.041 12.9827 133.689 13.1318 133.284 13.1318ZM132.095 26.3914C132.862 24.8365 133.597 23.3028 134.3 21.7905C135.003 20.2568 135.727 18.7978 136.473 17.4132C136.899 16.6464 137.261 16.1139 137.559 15.8157C137.857 15.4962 138.251 15.3364 138.741 15.3364C138.911 15.3364 139.093 15.3684 139.284 15.4323C139.476 15.4749 139.668 15.4962 139.859 15.4962C139.987 15.4962 140.083 15.4855 140.147 15.4642C139.849 15.6346 139.455 16.0606 138.965 16.7422C138.496 17.4026 138.017 18.1694 137.527 19.0427C137.037 19.916 136.6 20.7361 136.217 21.5029C136.622 21.013 137.048 20.5231 137.495 20.0332C137.942 19.5433 138.432 19.0747 138.965 18.6273C139.476 18.18 140.083 17.7221 140.786 17.2535C141.51 16.7635 142.213 16.3588 142.895 16.0393C143.576 15.7198 144.119 15.5601 144.524 15.5601C144.673 15.5601 144.78 15.5707 144.844 15.592C144.844 15.592 144.727 15.805 144.492 16.231C144.258 16.6357 143.96 17.1789 143.598 17.8605C143.257 18.5208 142.905 19.2344 142.543 20.0012C142.181 20.7468 141.851 21.471 141.553 22.1739C141.276 22.8555 141.095 23.4306 141.01 23.8992C140.946 24.1761 140.914 24.4318 140.914 24.6661C140.914 25.0069 140.978 25.2305 141.105 25.337C141.233 25.4435 141.372 25.4968 141.521 25.4968C141.925 25.4968 142.341 25.3157 142.767 24.9536C143.193 24.5915 143.598 24.1335 143.981 23.5797C144.386 23.0046 144.758 22.3975 145.099 21.7585C145.44 21.1195 145.728 20.5231 145.962 19.9693C146.218 19.9693 146.345 20.0651 146.345 20.2568C146.111 20.832 145.813 21.471 145.451 22.1739C145.11 22.8555 144.716 23.5052 144.269 24.1229C143.843 24.7406 143.363 25.2518 142.831 25.6565C142.298 26.0612 141.723 26.2636 141.105 26.2636C140.679 26.2636 140.232 26.1145 139.763 25.8163C139.316 25.5181 139.093 24.9643 139.093 24.1548C139.093 23.9205 139.114 23.6756 139.156 23.42C139.199 23.1431 139.274 22.8449 139.38 22.5253C139.55 22.0993 139.753 21.6414 139.987 21.1515C140.221 20.6616 140.605 19.9906 141.137 19.1386C141.286 18.9043 141.372 18.7232 141.393 18.5954C141.436 18.4676 141.457 18.3611 141.457 18.2759C141.457 18.0203 141.34 17.8925 141.105 17.8925C140.914 17.8925 140.626 17.999 140.243 18.212C139.881 18.425 139.423 18.7978 138.869 19.3303C138.336 19.8415 137.697 20.5657 136.952 21.5029C136.228 22.4401 135.386 23.8247 134.428 25.6565C134.279 25.9334 134.108 26.0825 133.916 26.1038C133.746 26.1251 133.501 26.1464 133.182 26.1677C132.969 26.189 132.766 26.1997 132.575 26.1997C132.383 26.221 132.223 26.2849 132.095 26.3914ZM143.754 36.3281C141.73 36.3281 140.719 35.4974 140.719 33.836C140.719 33.0478 140.995 32.3449 141.549 31.7272C142.103 31.1095 142.763 30.577 143.53 30.1297C144.595 29.4906 145.639 28.9794 146.661 28.596C147.684 28.2126 148.664 27.8718 149.601 27.5736C150.538 27.2967 151.411 26.9878 152.221 26.647C152.413 26.0932 152.572 25.4861 152.7 24.8258C152.828 24.1442 152.924 23.4839 152.988 22.8449C153.052 22.2058 153.084 21.652 153.084 21.1834C153.084 20.6935 153.052 20.374 152.988 20.2249C152.753 20.6722 152.434 21.226 152.029 21.8863C151.646 22.5467 151.188 23.207 150.655 23.8673C150.144 24.5063 149.601 25.0388 149.026 25.4648C148.451 25.8908 147.865 26.1038 147.268 26.1038C147.055 26.1038 146.853 26.0719 146.661 26.008C146.065 25.7524 145.628 25.3903 145.351 24.9217C145.096 24.4531 144.968 23.9205 144.968 23.3241C144.968 22.3656 145.245 21.3325 145.799 20.2249C146.353 19.1173 147.013 18.1055 147.78 17.1896C148.397 16.444 149.122 15.8476 149.952 15.4003C150.783 14.953 151.624 14.7293 152.476 14.7293C153.456 14.7293 154.372 15.0595 155.224 15.7198C155.544 15.9754 155.703 16.2523 155.703 16.5505C155.703 16.87 155.576 17.0298 155.32 17.0298C155.107 17.0298 154.958 16.8913 154.873 16.6144C154.575 15.8263 154.095 15.4323 153.435 15.4323C152.902 15.4323 152.295 15.6666 151.614 16.1352C150.932 16.5825 150.293 17.147 149.697 17.8286C149.186 18.4037 148.685 19.064 148.195 19.8095C147.726 20.555 147.332 21.2899 147.013 22.0141C146.715 22.7384 146.566 23.3667 146.566 23.8992C146.566 24.2613 146.651 24.5702 146.821 24.8258C146.992 25.0814 147.258 25.2092 147.62 25.2092C148.11 25.2092 148.621 24.9749 149.154 24.5063C149.707 24.0377 150.229 23.4626 150.719 22.781C151.23 22.0993 151.667 21.4071 152.029 20.7042C152.413 20.0012 152.679 19.4155 152.828 18.9469C152.977 18.4569 153.179 18.1587 153.435 18.0522C153.691 17.9244 153.946 17.8605 154.202 17.8605C154.457 17.8605 154.67 17.7966 154.841 17.6688C154.926 18.1374 154.979 18.6167 155.001 19.1066C155.043 19.5752 155.064 20.0545 155.064 20.5444C155.064 21.5242 155.001 22.4188 154.873 23.2283C154.766 24.0377 154.575 24.9004 154.298 25.8163C155.064 25.3477 155.725 24.7619 156.279 24.059C156.854 23.3348 157.322 22.6106 157.684 21.8863C158.068 21.1408 158.377 20.5018 158.611 19.9693C158.867 19.9693 158.994 20.0651 158.994 20.2568C158.718 20.832 158.366 21.5349 157.94 22.3656C157.535 23.1963 157.013 24.0057 156.374 24.7939C155.757 25.5607 154.979 26.1571 154.042 26.5831C153.68 27.6055 153.158 28.6812 152.476 29.8101C151.816 30.9391 151.028 31.9935 150.112 32.9733C149.196 33.9744 148.195 34.7838 147.109 35.4015C146.022 36.0193 144.904 36.3281 143.754 36.3281ZM142.987 35.6891C143.456 35.6891 143.946 35.5826 144.457 35.3696C144.989 35.1779 145.49 34.9436 145.958 34.6667C146.427 34.3898 146.789 34.1555 147.045 33.9638C147.535 33.5803 148.035 33.1011 148.546 32.526C149.058 31.9509 149.505 31.397 149.888 30.8645C150.251 30.3533 150.623 29.8101 151.007 29.235C151.39 28.6812 151.699 28.1274 151.933 27.5736L150.623 27.9889C149.92 28.202 149.143 28.4576 148.291 28.7558C147.46 29.0753 146.629 29.4267 145.799 29.8101C144.968 30.1936 144.212 30.6089 143.53 31.0562C142.934 31.4609 142.444 31.9935 142.06 32.6538C141.656 33.3141 141.453 33.8892 141.453 34.3791C141.453 34.7412 141.581 35.0501 141.837 35.3057C142.071 35.5613 142.455 35.6891 142.987 35.6891ZM155.527 26.3914C156.422 24.5596 157.348 22.6425 158.307 20.6402C159.287 18.6167 160.288 16.5825 161.31 14.5376C162.333 12.4928 163.345 10.5438 164.346 8.69063C164.708 8.05162 165.038 7.55105 165.336 7.18894C165.656 6.82683 166.071 6.64578 166.582 6.64578C166.774 6.64578 166.998 6.67773 167.253 6.74163C167.509 6.80553 167.754 6.81618 167.988 6.77358C167.711 7.07179 167.328 7.59365 166.838 8.33917C166.369 9.08469 165.837 9.97932 165.24 11.023C164.665 12.0668 164.047 13.1957 163.387 14.4098C162.748 15.6027 162.109 16.8168 161.47 18.0522C160.852 19.2664 160.277 20.4059 159.745 21.471C160.171 20.9172 160.607 20.3953 161.055 19.9054C161.502 19.4155 161.939 18.9895 162.365 18.6273C162.833 18.2013 163.419 17.754 164.122 17.2854C164.846 16.8168 165.56 16.4121 166.263 16.0713C166.987 15.7305 167.562 15.5601 167.988 15.5601C168.137 15.5601 168.244 15.5707 168.308 15.592C168.308 15.592 168.19 15.805 167.956 16.231C167.722 16.657 167.424 17.2002 167.062 17.8605C166.721 18.5208 166.359 19.2344 165.975 20.0012C165.613 20.7681 165.294 21.5029 165.017 22.2058C164.74 22.8875 164.559 23.4519 164.473 23.8992C164.41 24.24 164.378 24.5276 164.378 24.7619C164.378 25.1027 164.442 25.337 164.569 25.4648C164.697 25.5713 164.836 25.6246 164.985 25.6246C165.347 25.6246 165.73 25.4435 166.135 25.0814C166.561 24.698 166.976 24.2187 167.381 23.6436C167.786 23.0685 168.158 22.4614 168.499 21.8224C168.861 21.1621 169.149 20.5444 169.362 19.9693C169.618 19.9693 169.745 20.0651 169.745 20.2568C169.511 20.832 169.213 21.471 168.851 22.1739C168.51 22.8555 168.116 23.5052 167.669 24.1229C167.221 24.7406 166.731 25.2518 166.199 25.6565C165.666 26.0612 165.102 26.2636 164.505 26.2636C164.079 26.2636 163.643 26.1145 163.195 25.8163C162.748 25.5181 162.524 24.9749 162.524 24.1868C162.524 23.9525 162.546 23.7075 162.588 23.4519C162.631 23.175 162.706 22.8662 162.812 22.5253C162.94 22.0993 163.153 21.6307 163.451 21.1195C163.749 20.587 164.133 19.9267 164.601 19.1386C164.814 18.7764 164.921 18.4889 164.921 18.2759C164.921 18.0203 164.793 17.8925 164.537 17.8925C164.324 17.8925 164.037 17.999 163.675 18.212C163.313 18.425 162.855 18.7978 162.301 19.3303C161.768 19.8415 161.108 20.587 160.32 21.5668C159.532 22.5467 158.69 23.9205 157.796 25.6885C157.647 25.9654 157.476 26.1145 157.285 26.1358C157.114 26.1358 156.88 26.1464 156.582 26.1677C156.39 26.189 156.198 26.1997 156.007 26.1997C155.815 26.221 155.655 26.2849 155.527 26.3914Z" fill="black"/>
</svg>
