<svg width="199" height="45" viewBox="0 0 199 45" fill="none" xmlns="http://www.w3.org/2000/svg">
<g clip-path="url(#clip0_2506_581)">
<mask id="mask0_2506_581" style="mask-type:luminance" maskUnits="userSpaceOnUse" x="0" y="0" width="199" height="45">
<path d="M198.837 0H0V45H198.837V0Z" fill="white"/>
</mask>
<g mask="url(#mask0_2506_581)">
<path d="M12.6913 28.8737C15.4483 28.8737 17.5401 26.8993 17.5401 23.8162C17.5401 20.7817 15.4483 18.7588 12.6913 18.7588C9.88706 18.7588 7.93762 20.7337 7.93762 23.7682C7.93762 26.8507 9.88706 28.8737 12.6913 28.8737ZM0 43.9984V12.7861C0 12.3523 0.332558 12.0154 0.760499 12.0154H6.65481C7.08224 12.0154 7.41479 12.3523 7.41479 12.7861L7.51017 14.7128C8.98374 12.6418 11.2178 11.4375 14.498 11.4375C20.9147 11.4375 25.3354 16.88 25.3354 23.8162C25.3354 30.8004 20.9147 36.1948 14.498 36.1948C11.6932 36.1948 9.60146 35.2319 8.033 33.546V43.9984C8.033 44.432 7.70043 44.769 7.27249 44.769H0.760499C0.332558 44.769 0 44.432 0 43.9984Z" fill="url(#paint0_linear_2506_581)"/>
<path d="M26.7109 34.8782V12.8173C26.7109 12.3836 27.0435 12.0467 27.471 12.0467H33.7458C34.1258 12.0467 34.411 12.2394 34.4584 12.8654L34.6966 16.0445C35.457 13.3951 36.8832 11.4688 39.5448 11.4688C40.7331 11.4688 41.3509 11.8059 41.6834 12.0947C42.0639 12.3836 42.1592 12.7211 42.1592 13.1548V18.5012C42.1592 19.0789 41.8267 19.2717 41.1606 19.1271C40.6857 18.9829 40.2103 18.8867 39.4023 18.8867C36.5975 18.8867 34.6966 20.3793 34.6966 24.0403V34.8782C34.6966 35.3114 34.364 35.6483 33.9356 35.6483H27.471C27.0435 35.6483 26.7109 35.3114 26.7109 34.8782Z" fill="url(#paint1_linear_2506_581)"/>
<path d="M54.0888 28.7926C56.6085 28.7926 58.6997 26.9624 58.6997 23.8318C58.6997 20.7006 56.6085 18.871 54.0888 18.871C51.5222 18.871 49.4304 20.7006 49.4304 23.8318C49.4304 26.9624 51.5222 28.7926 54.0888 28.7926ZM41.7773 23.8318C41.7773 16.8955 46.9591 11.4531 54.0888 11.4531C61.1715 11.4531 66.3522 16.8955 66.3522 23.8318C66.3522 30.7679 61.1715 36.2105 54.0888 36.2105C46.9591 36.2105 41.7773 30.7679 41.7773 23.8318Z" fill="url(#paint2_linear_2506_581)"/>
<path d="M67.7422 34.8782V12.8173C67.7422 12.3836 68.0748 12.0467 68.5021 12.0467H74.7769C75.1569 12.0467 75.4895 12.2394 75.4895 12.8654L75.6798 15.2259C77.011 13.01 79.1497 11.4688 82.1918 11.4688C85.044 11.4688 87.3256 12.8654 88.6567 15.4181C90.0349 13.1062 92.3644 11.4688 95.7867 11.4688C100.873 11.4688 104.01 15.0812 104.01 21.2462V34.8782C104.01 35.3114 103.677 35.6483 103.249 35.6483H96.7847C96.3575 35.6483 96.0245 35.3114 96.0245 34.8782V23.173C96.0245 20.3313 95.0738 18.8867 92.9351 18.8867C90.8908 18.8867 89.8448 20.3313 89.8448 23.173V34.8782C89.8448 35.3114 89.5122 35.6483 89.0847 35.6483H82.715C82.1918 35.6483 81.8592 35.3114 81.8592 34.8782V23.173C81.8592 20.3313 80.9564 18.8867 78.8171 18.8867C76.8208 18.8867 75.7276 20.3313 75.7276 23.173V34.8782C75.7276 35.3114 75.3951 35.6483 74.9667 35.6483H68.5021C68.0748 35.6483 67.7422 35.3114 67.7422 34.8782Z" fill="url(#paint3_linear_2506_581)"/>
<path d="M117.983 28.8891C120.787 28.8891 122.736 26.8662 122.736 23.7837C122.736 20.7492 120.787 18.7743 117.983 18.7743C115.225 18.7743 113.133 20.7972 113.133 23.8317C113.133 26.9147 115.225 28.8891 117.983 28.8891ZM105.338 23.8317C105.338 16.8955 109.758 11.4531 116.176 11.4531C119.455 11.4531 121.689 12.6573 123.164 14.7285L123.258 12.8015C123.258 12.368 123.591 12.0309 124.019 12.0309H129.913C130.34 12.0309 130.674 12.368 130.674 12.8015V34.8624C130.674 35.2956 130.293 35.6326 129.866 35.6326H124.019C123.591 35.6326 123.258 35.2956 123.258 34.8624L123.164 32.887C121.595 34.9581 119.361 36.2104 116.176 36.2104C109.758 36.2104 105.338 30.816 105.338 23.8317Z" fill="url(#paint4_linear_2506_581)"/>
<path d="M135.422 28.2748V18.2566H132.522C132.094 18.2566 131.809 17.9191 131.809 17.4859V12.8136C131.809 12.3799 132.094 12.0429 132.522 12.0429H135.422V6.5519C135.422 6.11826 135.754 5.78125 136.182 5.78125H142.741C143.169 5.78125 143.502 6.11826 143.502 6.5519V12.0429H146.973C147.4 12.0429 147.734 12.3799 147.734 12.8136V17.4859C147.734 17.9191 147.4 18.2566 146.973 18.2566H143.502V27.408C143.502 28.5642 144.358 29.2381 145.498 29.2381C145.927 29.2381 146.307 29.2867 146.973 29.2381C147.352 29.19 147.78 29.4309 147.78 29.9127V34.3442C147.78 35.5965 145.118 35.9334 143.408 35.9334C139.462 35.9334 135.422 34.1519 135.422 28.2748Z" fill="url(#paint5_linear_2506_581)"/>
<path d="M148.93 12.8124C148.93 12.3787 149.262 12.0417 149.689 12.0417H156.249C156.677 12.0417 157.01 12.3787 157.01 12.8124V34.8733C157.01 35.3064 156.677 35.6434 156.249 35.6434H149.689C149.262 35.6434 148.93 35.3064 148.93 34.8733V12.8124ZM148.643 4.33486C148.643 1.92683 150.45 0 152.969 0C155.441 0 157.295 1.92683 157.295 4.33486C157.295 6.79147 155.441 8.71832 152.969 8.71832C150.45 8.71832 148.643 6.79147 148.643 4.33486Z" fill="url(#paint6_linear_2506_581)"/>
<path d="M158.432 23.6871C158.432 16.7514 163.564 11.4531 170.601 11.4531C174.545 11.4531 177.729 13.1873 179.727 15.8366C180.012 16.1735 179.917 16.6067 179.631 16.8955L175.971 20.4603C175.638 20.7972 175.021 20.8454 174.687 20.4603C173.5 19.3526 172.359 18.871 170.98 18.871C167.844 18.871 166.085 21.0863 166.085 23.6871C166.085 26.2884 167.844 28.7926 171.123 28.7926C172.406 28.7926 173.547 28.3114 174.736 27.1553C175.068 26.8181 175.687 26.8662 176.019 27.2032L179.68 30.7679C179.964 31.0569 180.059 31.4905 179.774 31.8276C177.778 34.4769 174.593 36.2105 170.839 36.2105C163.66 36.2105 158.432 30.7679 158.432 23.6871Z" fill="url(#paint7_linear_2506_581)"/>
<path d="M180.491 32.1165C180.253 31.8276 180.301 31.201 180.682 30.6713L182.772 27.685C183.201 27.011 183.628 27.1551 184.008 27.396C186.149 28.8411 187.717 29.5156 189.19 29.5156C190.235 29.5156 190.902 29.2262 190.902 28.3594C190.902 27.685 190.473 27.3479 189.048 26.722L186.005 25.5178C182.915 24.3135 180.967 22.1458 180.967 18.9191C180.967 14.1505 185.006 11.4531 189.57 11.4531C192.754 11.4531 195.702 12.7535 197.795 15.2582C198.079 15.5951 197.984 15.9808 197.745 16.2216L195.038 19.4969C194.752 19.8339 194.371 19.7858 193.943 19.4969C192.422 18.3412 191.186 17.7148 189.997 17.7148C188.715 17.7148 188.524 18.4368 188.524 18.9191C188.524 19.5451 189.19 20.0748 189.997 20.3637L193.706 21.8569C196.604 23.0131 198.888 25.1803 198.84 28.745C198.744 33.7063 194.561 36.2105 189.714 36.2105C185.767 36.2105 182.583 34.6211 180.491 32.1165Z" fill="url(#paint8_linear_2506_581)"/>
</g>
</g>
<defs>
<linearGradient id="paint0_linear_2506_581" x1="0" y1="22.3713" x2="198.833" y2="22.3713" gradientUnits="userSpaceOnUse">
<stop stop-color="#29D8FC"/>
<stop offset="0.392703" stop-color="#29D8FC"/>
<stop offset="1" stop-color="#114C73"/>
</linearGradient>
<linearGradient id="paint1_linear_2506_581" x1="-0.00300674" y1="22.4025" x2="198.828" y2="22.4025" gradientUnits="userSpaceOnUse">
<stop stop-color="#29D8FC"/>
<stop offset="0.392703" stop-color="#29D8FC"/>
<stop offset="1" stop-color="#114C73"/>
</linearGradient>
<linearGradient id="paint2_linear_2506_581" x1="-0.00398041" y1="22.3869" x2="198.829" y2="22.3869" gradientUnits="userSpaceOnUse">
<stop stop-color="#29D8FC"/>
<stop offset="0.392703" stop-color="#29D8FC"/>
<stop offset="1" stop-color="#114C73"/>
</linearGradient>
<linearGradient id="paint3_linear_2506_581" x1="0.00671746" y1="22.4025" x2="198.839" y2="22.4025" gradientUnits="userSpaceOnUse">
<stop stop-color="#29D8FC"/>
<stop offset="0.392703" stop-color="#29D8FC"/>
<stop offset="1" stop-color="#114C73"/>
</linearGradient>
<linearGradient id="paint4_linear_2506_581" x1="0.00461261" y1="22.3869" x2="198.837" y2="22.3869" gradientUnits="userSpaceOnUse">
<stop stop-color="#29D8FC"/>
<stop offset="0.392703" stop-color="#29D8FC"/>
<stop offset="1" stop-color="#114C73"/>
</linearGradient>
<linearGradient id="paint5_linear_2506_581" x1="-0.000747921" y1="22.3988" x2="198.831" y2="22.3988" gradientUnits="userSpaceOnUse">
<stop stop-color="#29D8FC"/>
<stop offset="0.392703" stop-color="#29D8FC"/>
<stop offset="1" stop-color="#114C73"/>
</linearGradient>
<linearGradient id="paint6_linear_2506_581" x1="0.00645298" y1="22.3976" x2="198.839" y2="22.3976" gradientUnits="userSpaceOnUse">
<stop stop-color="#29D8FC"/>
<stop offset="0.392703" stop-color="#29D8FC"/>
<stop offset="1" stop-color="#114C73"/>
</linearGradient>
<linearGradient id="paint7_linear_2506_581" x1="0.00368709" y1="22.3869" x2="198.836" y2="22.3869" gradientUnits="userSpaceOnUse">
<stop stop-color="#29D8FC"/>
<stop offset="0.392703" stop-color="#29D8FC"/>
<stop offset="1" stop-color="#114C73"/>
</linearGradient>
<linearGradient id="paint8_linear_2506_581" x1="0.00810895" y1="22.3869" x2="198.841" y2="22.3869" gradientUnits="userSpaceOnUse">
<stop stop-color="#29D8FC"/>
<stop offset="0.392703" stop-color="#29D8FC"/>
<stop offset="1" stop-color="#114C73"/>
</linearGradient>
<clipPath id="clip0_2506_581">
<rect width="198.837" height="45" fill="white"/>
</clipPath>
</defs>
</svg>
